{"title":"Criminal Minds - s09e04 - To Bear Witness 720p ENG sub ITA/ENG","uid":9086074,"size":828642377,"categoryP":"video","categoryS":"hd___tv_shows","magnet":"?xt=urn:btih:7f12cce23ad2836b7dcdd1464e6d7088a71fd2be&amp;dn=Criminal+Minds+-+s09e04+-+To+Bear+Witness+720p+ENG+sub+ITA%2FENG&amp;tr=udp%3A%2F%2Ftracker.openbittorrent.com%3A80&amp;tr=udp%3A%2F%2Fopen.demonii.com%3A1337&amp;tr=udp%3A%2F%2Ftracker.coppersurfer.tk%3A6969&amp;tr=udp%3A%2F%2Fexodus.desync.com%3A6969","seeders":2,"leechers":0,"uploader":"ziopino","files":1,"time":1382491652,"description":"Format                                   : Matroska\nFormat version                           : Version 4 / Version 2\nFile size                                : 790 MiB\nDuration                                 : 41mn 45s\nOverall bit rate                         : 2 646 Kbps\nEncoded date                             : UTC 2013-10-22 18:12:05\nWriting application                      : mkvmerge v6.5.0 ('Isn't she lovely') built on Oct 20 2013 12:50:05\nWriting library                          : libebml v1.3.0 + libmatroska v1.4.1\n\nVideo\nID                                       : 1\nFormat                                   : AVC\nFormat/Info                              : Advanced Video Codec\nFormat profile                           : &lt;a class=&quot;__cf_email__&quot; href=&quot;/cdn-cgi/l/email-protection&quot; data-cfemail=&quot;6b23020c032b275f455a&quot;&gt;[email&amp;#160;protected]&lt;/a&gt;&lt;script cf-hash='f9e31' type=&quot;text/javascript&quot;&gt;\n/* &lt;![CDATA[ */!function(){try{var t=&quot;currentScript&quot;in document?document.currentScript:function(){for(var t=document.getElementsByTagName(&quot;script&quot;),e=t.length;e--;)if(t[e].getAttribute(&quot;cf-hash&quot;))return t[e]}();if(t&amp;&amp;t.previousSibling){var e,r,n,i,c=t.previousSibling,a=c.getAttribute(&quot;data-cfemail&quot;);if(a){for(e=&quot;&quot;,r=parseInt(a.substr(0,2),16),n=2;a.length-n;n+=2)i=parseInt(a.substr(n,2),16)^r,e+=String.fromCharCode(i);e=document.createTextNode(e),c.parentNode.replaceChild(e,c)}}}catch(u){}}();/* ]]&gt; */&lt;/script&gt;\nFormat settings, CABAC                   : Yes\nFormat settings, ReFrames                : 9 frames\nCodec ID                                 : V_MPEG4/ISO/AVC\nDuration                                 : 41mn 45s\nBit rate                                 : 2 146 Kbps\nWidth                                    : 1 280 pixels\nHeight                                   : 720 pixels\nDisplay aspect ratio                     : 16:9\nFrame rate mode                          : Constant\nFrame rate                               : 23.976 fps\nColor space                              : YUV\nChroma subsampling                       : 4:2:0\nBit depth                                : 8 bits\nScan type                                : Progressive\nBits/(Pixel*Frame)                       : 0.097\nStream size                              : 641 MiB (81%)\nWriting library                          : x264 core 138 r2358 9e941d1\nLanguage                                 : English\nDefault                                  : No\nForced                                   : No\nMatrix coefficients                      : BT.709\n\nAudio\nID                                       : 2\nFormat                                   : AC-3\nFormat/Info                              : Audio Coding 3\nMode extension                           : CM (complete main)\nFormat settings, Endianness              : Big\nCodec ID                                 : A_AC3\nDuration                                 : 41mn 45s\nBit rate mode                            : Constant\nBit rate                                 : 448 Kbps\nChannel(s)                               : 6 channels\nChannel positions                        : Front: L C R, Side: L R, LFE\nSampling rate                            : 48.0 KHz\nBit depth                                : 16 bits\nCompression mode                         : Lossy\nStream size                              : 134 MiB (17%)\nTitle                                    : English\nLanguage                                 : English\nDefault                                  : Yes\nForced                                   : No\n\nText #1\nID                                       : 3\nFormat                                   : UTF-8\nCodec ID                                 : S_TEXT/UTF8\nCodec ID/Info                            : UTF-8 Plain Text\nTitle                                    : English\nLanguage                                 : English\nDefault                                  : Yes\nForced                                   : No\n\nText #2\nID                                       : 4\nFormat                                   : UTF-8\nCodec ID                                 : S_TEXT/UTF8\nCodec ID/Info                            : UTF-8 Plain Text\nTitle                                    : Italiano\nLanguage                                 : Italian\nDefault                                  : No\nForced                                   : No\n\n","torrent":{"xt":"urn:btih:7f12cce23ad2836b7dcdd1464e6d7088a71fd2be","amp;dn":"Criminal+Minds+-+s09e04+-+To+Bear+Witness+720p+ENG+sub+ITA%2FENG","amp;tr":["udp%3A%2F%2Ftracker.openbittorrent.com%3A80","udp%3A%2F%2Fopen.demonii.com%3A1337","udp%3A%2F%2Ftracker.coppersurfer.tk%3A6969","udp%3A%2F%2Fexodus.desync.com%3A6969"],"infoHash":"7f12cce23ad2836b7dcdd1464e6d7088a71fd2be","infoHashBuffer":{"type":"Buffer","data":[127,18,204,226,58,210,131,107,125,205,209,70,78,109,112,136,167,31,210,190]},"announce":[],"urlList":[]}}